<?xml version="1.0" encoding="UTF-8" standalone="no"?>
<svg
   xmlns:dc="http://purl.org/dc/elements/1.1/"
   xmlns:cc="http://creativecommons.org/ns#"
   xmlns:rdf="http://www.w3.org/1999/02/22-rdf-syntax-ns#"
   xmlns:svg="http://www.w3.org/2000/svg"
   xmlns="http://www.w3.org/2000/svg"
   xmlns:sodipodi="http://sodipodi.sourceforge.net/DTD/sodipodi-0.dtd"
   xmlns:inkscape="http://www.inkscape.org/namespaces/inkscape"
   version="1.1"
   id="svg2"
   xml:space="preserve"
   width="1221.2211"
   height="259.21866"
   viewBox="0 0 1221.2211 259.21866"
   sodipodi:docname="serwersms.logo.svg"
   inkscape:version="1.0.2 (394de47547, 2021-03-26)"><metadata
     id="metadata8"><rdf:RDF><cc:Work
         rdf:about=""><dc:format>image/svg+xml</dc:format><dc:type
           rdf:resource="http://purl.org/dc/dcmitype/StillImage" /><dc:title></dc:title></cc:Work></rdf:RDF></metadata><defs
     id="defs6"><clipPath
       clipPathUnits="userSpaceOnUse"
       id="clipPath20"><path
         d="M 0,442.125 H 1165 V 0 H 0 Z"
         id="path18" /></clipPath></defs><sodipodi:namedview
     pagecolor="#ffffff"
     bordercolor="#666666"
     borderopacity="1"
     objecttolerance="10"
     gridtolerance="10"
     guidetolerance="10"
     inkscape:pageopacity="0"
     inkscape:pageshadow="2"
     inkscape:window-width="1920"
     inkscape:window-height="1052"
     id="namedview4"
     showgrid="false"
     fit-margin-top="0"
     fit-margin-left="0"
     fit-margin-right="0"
     fit-margin-bottom="0"
     inkscape:zoom="0.35507081"
     inkscape:cx="1022.3728"
     inkscape:cy="8.554347"
     inkscape:window-x="0"
     inkscape:window-y="0"
     inkscape:window-maximized="1"
     inkscape:current-layer="g10" /><g
     id="g10"
     inkscape:groupmode="layer"
     inkscape:label="Logo_SerwerSMSpl"
     transform="matrix(1.3333333,0,0,-1.3333333,-165.7676,424.33732)"><g
       id="g14"
       style="fill:#e01f27;fill-opacity:1"><g
         id="g16"
         clip-path="url(#clipPath20)"
         style="fill:#e01f27;fill-opacity:1"><g
           id="g22"
           transform="translate(951.5444,196.6396)"
           style="fill:#e01f27;fill-opacity:1"><path
             d="m 0,0 h -10.379 c -1.012,0 -1.719,-0.778 -1.719,-1.791 v -10.378 c 0,-1.019 0.707,-1.864 1.719,-1.864 H 0 c 1.014,0 1.865,0.845 1.865,1.864 V -1.791 C 1.865,-0.778 1.014,0 0,0"
             style="fill:#e01f27;fill-opacity:1;fill-rule:nonzero;stroke:none"
             id="path24" /></g><g
           id="g26"
           transform="translate(980.4565,219.293)"
           style="fill:#e01f27;fill-opacity:1"><path
             d="m 0,0 c 0,-4.488 0.584,-8.094 2.047,-10.897 1.314,-2.798 4.613,-4.236 9.75,-4.236 5.603,0 8.947,1.37 10.041,3.97 1.086,2.673 1.56,6.342 1.56,11.163 v 2.995 2.611 c 0,0.853 -0.031,1.81 -0.097,2.804 -0.135,1.445 -0.33,2.933 -0.586,4.309 -0.399,1.457 -0.83,2.612 -1.559,3.464 -0.586,0.926 -1.48,1.55 -2.537,1.944 -1.053,0.329 -2.144,0.63 -3.265,0.761 -0.458,0.068 -1.073,0.098 -1.561,0.098 H 12.092 11.504 C 8.67,18.986 6.27,18.689 4.334,18.036 2.256,17.301 0.988,14.93 0.389,10.848 0.322,10.25 0.258,9.644 0.193,9.015 0.129,8.391 0.098,7.779 0.098,7.113 0.029,6.459 0,5.815 0,5.193 V 3.365 Z m -0.4,27.958 v -7.287 c 2.076,3.235 4.332,5.377 6.744,6.361 2.545,1.055 5.486,1.587 9.113,1.587 9.436,0 15.197,-2.31 17.439,-6.917 2.245,-4.612 3.368,-11.033 3.368,-19.331 0,-7.445 -1.02,-13.799 -3.069,-19.066 -2.045,-5.346 -7.689,-7.94 -16.914,-7.94 -3.621,0 -6.791,0.37 -9.359,1.265 -2.567,0.823 -4.84,2.946 -6.82,6.305 l -0.198,-29.062 h -12.332 v 74.085 z"
             style="fill:#e01f27;fill-opacity:1;fill-rule:nonzero;stroke:none"
             id="path28" /></g><path
           d="m 1039.902,195.129 h -12.625 v 74.669 h 12.625 z"
           style="fill:#e01f27;fill-opacity:1;fill-rule:nonzero;stroke:none"
           id="path30" /><g
           id="g32"
           transform="translate(168.9067,247.8799)"
           style="fill:#e01f27;fill-opacity:1"><path
             d="m 0,0 c 0,4.401 -0.928,7.323 -2.702,8.841 -1.781,1.44 -4.84,2.236 -9.255,2.236 h -3.919 -2.189 c -0.759,0 -1.566,-0.033 -2.289,-0.173 -1.188,-0.069 -2.37,-0.209 -3.559,-0.439 -1.185,-0.296 -2.24,-0.709 -3.164,-1.235 -0.852,-0.592 -1.508,-1.346 -1.971,-2.334 -0.465,-0.914 -0.827,-1.962 -1.022,-3.08 0,-0.462 -0.02,-0.908 -0.049,-1.266 -0.032,-0.426 -0.048,-0.84 -0.048,-1.16 0,-3.767 0.704,-6.36 2.19,-7.713 1.412,-1.351 4.1,-2.198 7.985,-2.394 0.323,0 0.705,-0.013 1.072,-0.051 0.293,-0.03 0.672,-0.043 1.026,-0.043 0.964,-0.069 1.938,-0.19 2.829,-0.222 0.949,-0.03 1.89,-0.05 2.742,-0.05 7.312,-0.191 13.759,-1.234 19.343,-3.05 5.605,-1.809 8.407,-7.735 8.407,-17.634 0,-6.334 -1.022,-11.605 -3.001,-15.656 -2.041,-4.064 -6.691,-6.452 -14.008,-7.169 -1.191,-0.069 -2.358,-0.191 -3.508,-0.221 -1.154,-0.032 -2.288,-0.082 -3.408,-0.149 -1.188,-0.063 -2.356,-0.094 -3.507,-0.094 h -3.507 c -8.576,0 -15.599,0.975 -20.963,2.853 -5.439,1.876 -8.106,8.001 -8.106,18.294 v 0.711 c 0,0.302 0.057,0.512 0.12,0.783 v 0.704 0.711 h 13.523 c 0,-3.433 0.434,-6.373 1.393,-8.811 0.954,-2.512 3.472,-3.767 7.622,-3.828 1.844,-0.068 3.624,-0.099 5.403,-0.099 h 5.331 c 4.414,0 7.642,0.641 9.618,1.921 2.047,1.363 3.045,4.284 3.045,8.835 0,4.883 -1.313,7.786 -3.849,8.718 -2.603,0.92 -5.917,1.346 -9.933,1.488 h -2.237 c -0.725,0 -1.48,0.029 -2.339,0.092 -0.325,0 -0.74,0.018 -1.17,0.049 -0.415,0.031 -0.77,0.08 -1.168,0.149 -7.906,0.531 -14.084,1.827 -18.463,3.97 -4.452,2.149 -6.679,8.101 -6.679,18.005 0,6.26 1.319,11.032 4.022,14.404 2.705,3.359 7.283,5.267 13.742,5.797 1.98,0.204 3.905,0.302 5.857,0.365 1.998,0.067 3.92,0.098 5.903,0.098 7.639,0 14.322,-0.784 19.989,-2.432 5.669,-1.655 8.497,-7.261 8.497,-16.825 V 0 Z"
             style="fill:#e01f27;fill-opacity:1;fill-rule:nonzero;stroke:none"
             id="path34" /></g><g
           id="g36"
           transform="translate(226.3945,236.5684)"
           style="fill:#e01f27;fill-opacity:1"><path
             d="m 0,0 c -1.351,1.58 -4.598,2.334 -9.677,2.334 -4.358,0 -7.294,-0.624 -8.878,-1.871 -1.514,-1.247 -2.405,-4.11 -2.534,-8.594 v -0.463 -0.29 c -0.071,-0.203 -0.1,-0.335 -0.1,-0.464 V -9.811 H 2.099 C 2.099,-4.803 1.351,-1.506 0,0 m 14.165,-24.777 c 0.063,-0.333 0.095,-0.61 0.095,-0.976 v -1.074 c 0,-7.05 -2.356,-11.392 -7.073,-12.947 -4.781,-1.476 -10.039,-2.285 -15.842,-2.285 -11.084,0 -18.009,2.093 -20.845,6.212 -2.833,4.186 -4.217,11.317 -4.217,21.536 0,9.156 1.446,15.769 4.469,19.757 2.981,3.982 9.345,5.94 19.106,5.94 9.758,0 16.31,-1.742 19.52,-5.236 3.248,-3.489 4.882,-10.144 4.882,-19.887 l -0.095,-3.823 h -35.468 c 0,-5.469 0.609,-9.446 1.76,-11.848 1.152,-2.481 4.824,-3.68 11.087,-3.68 2.642,0 4.998,0.433 7.141,1.217 2.076,0.864 3.148,2.835 3.148,6.068 v 1.026 z"
             style="fill:#e01f27;fill-opacity:1;fill-rule:nonzero;stroke:none"
             id="path38" /></g><g
           id="g40"
           transform="translate(264.3623,247.3311)"
           style="fill:#e01f27;fill-opacity:1"><path
             d="m 0,0 -0.267,-6.921 h 0.463 c 1.319,2.641 3.211,4.549 5.549,5.802 2.338,1.249 4.994,1.951 7.888,1.951 5.796,0 9.669,-1.592 11.545,-4.765 1.875,-3.1 2.849,-7.33 2.849,-12.541 V -20.03 H 16.523 v 2.341 c 0,2.703 -0.351,4.864 -0.975,6.408 -0.624,1.612 -2.625,2.465 -5.929,2.465 -3.229,0 -5.548,-0.983 -7.028,-2.855 -1.414,-1.95 -2.133,-4.37 -2.133,-7.334 v -0.512 c 0,-0.167 0.046,-0.383 0.113,-0.513 v -0.611 -0.512 -31.125 H -11.96 V 0 Z"
             style="fill:#e01f27;fill-opacity:1;fill-rule:nonzero;stroke:none"
             id="path42" /></g><g
           id="g44"
           transform="translate(365.3228,195.0532)"
           style="fill:#e01f27;fill-opacity:1"><path
             d="M 0,0 H -17.961 L -27.492,41.966 -36.921,0 H -55.01 l -11.847,52.253 h 12.263 l 8.873,-43.751 h 0.292 l 10.09,43.751 h 15.693 L -9.724,8.502 h 0.463 l 8.969,43.751 H 11.87 Z"
             style="fill:#e01f27;fill-opacity:1;fill-rule:nonzero;stroke:none"
             id="path46" /></g><g
           id="g48"
           transform="translate(415.3838,236.5684)"
           style="fill:#e01f27;fill-opacity:1"><path
             d="m 0,0 c -1.348,1.58 -4.6,2.334 -9.681,2.334 -4.28,0 -7.289,-0.624 -8.801,-1.871 -1.589,-1.247 -2.478,-4.11 -2.609,-8.594 v -0.463 -0.29 c -0.065,-0.203 -0.098,-0.335 -0.098,-0.464 V -9.811 H 2.099 C 2.099,-4.803 1.424,-1.506 0,0 m 14.161,-24.777 c 0.066,-0.333 0.099,-0.61 0.099,-0.976 v -1.074 c 0,-7.05 -2.356,-11.392 -7.068,-12.947 -4.767,-1.476 -10.047,-2.285 -15.849,-2.285 -11.01,0 -18.006,2.093 -20.842,6.212 -2.835,4.186 -4.218,11.317 -4.218,21.536 0,9.156 1.517,15.769 4.486,19.757 2.966,3.982 9.331,5.94 19.089,5.94 9.831,0 16.308,-1.742 19.577,-5.236 3.191,-3.489 4.825,-10.144 4.825,-19.887 l -0.099,-3.823 h -35.437 c 0,-5.469 0.58,-9.446 1.733,-11.848 1.152,-2.481 4.824,-3.68 11.089,-3.68 2.638,0 4.994,0.433 7.14,1.217 2.144,0.864 3.199,2.835 3.199,6.068 v 1.026 z"
             style="fill:#e01f27;fill-opacity:1;fill-rule:nonzero;stroke:none"
             id="path50" /></g><g
           id="g52"
           transform="translate(452.1348,247.3311)"
           style="fill:#e01f27;fill-opacity:1"><path
             d="m 0,0 -0.271,-6.921 h 0.463 c 1.388,2.641 3.215,4.549 5.552,5.802 2.337,1.249 4.992,1.951 7.889,1.951 5.797,0 9.668,-1.592 11.544,-4.765 1.874,-3.1 2.846,-7.33 2.846,-12.541 V -20.03 H 16.526 v 2.341 c 0,2.703 -0.353,4.864 -0.976,6.408 -0.624,1.612 -2.577,2.465 -5.933,2.465 -3.228,0 -5.547,-0.983 -7.025,-2.855 -1.418,-1.95 -2.118,-4.37 -2.118,-7.334 v -0.512 c 0,-0.167 0.027,-0.383 0.096,-0.513 v -0.611 -0.512 -31.125 H -11.958 V 0 Z"
             style="fill:#e01f27;fill-opacity:1;fill-rule:nonzero;stroke:none"
             id="path54" /></g><g
           id="g56"
           transform="translate(417.3555,164.584)"
           style="fill:#e01f27;fill-opacity:1"><path
             d="m 0,0 -0.175,-0.171 v 7.628 h -6.23 V -5.75 L -7.432,-6.756 -8.413,-7.67 v -5.384 l 2.008,1.84 v -18.122 h 6.23 V -7.317 L 3.27,-4.182 V 1.246 L 0,-2.014 Z m 259.13,-19.535 v -1.205 c 0,-1.168 -0.283,-2.191 -0.556,-2.982 -0.272,-0.798 -1.164,-1.229 -2.52,-1.229 -1.33,0 -2.162,0.291 -2.353,1.012 -0.194,0.649 -0.291,1.507 -0.291,2.649 v 13.059 h 9.716 v 4.651 h -9.716 v 5.846 h -6.209 V -3.58 h -3.325 v -4.651 h 3.325 v -13.855 c 0,-3.13 0.748,-5.113 2.09,-6.087 1.347,-0.902 3.531,-1.396 6.568,-1.396 3.285,0 5.4,0.684 6.685,2.045 1.178,1.436 1.682,3.666 1.682,6.691 v 0.643 c 0,0.272 -0.012,0.456 -0.047,0.655 z m 8.125,-9.801 h 6.061 V -3.58 h -6.061 z M 214.226,-3.58 h -6.986 l -7.213,-10.017 h -1.506 V 7.457 h -6.105 v -36.793 h 6.105 v 11.455 h 1.506 l 8.555,-11.455 h 7.515 l -11.023,13.634 z m 9.85,-10.115 v 0.184 c 0,0.069 0.017,0.13 0.043,0.192 v 0.408 c 0.064,2.216 0.431,3.594 1.248,4.283 0.822,0.619 2.234,0.891 4.386,0.891 2.465,0 3.987,-0.408 4.733,-1.154 0.738,-0.742 1.031,-2.372 1.031,-4.804 z m 17.412,-1.983 c 0,4.848 -0.848,8.059 -2.385,9.782 -1.539,1.721 -4.762,2.623 -9.547,2.623 -4.922,0 -7.953,-1.007 -9.529,-2.934 -1.43,-2.006 -2.213,-5.193 -2.213,-9.711 0,-5.039 0.758,-8.551 2.115,-10.619 1.363,-2.067 4.778,-3.032 10.252,-3.032 2.936,0 5.492,0.326 7.817,1.129 2.324,0.729 3.49,2.872 3.49,6.347 v 0.531 c 0,0.143 -0.02,0.278 -0.047,0.482 h -6.018 v -0.506 c 0,-1.593 -0.605,-2.605 -1.664,-2.958 -1.06,-0.426 -2.222,-0.672 -3.492,-0.672 -2.976,0 -4.867,0.664 -5.508,1.852 -0.504,1.179 -0.744,3.104 -0.744,5.84 h 17.426 z m -59.537,12.503 c -1.483,0 -2.774,-0.272 -3.928,-0.89 -1.154,-0.69 -2.029,-1.597 -2.707,-2.936 h -0.197 l 0.097,3.421 h -5.914 v -25.756 h 6.164 v 15.875 c -0.035,0.067 -0.052,0.142 -0.052,0.29 v 0.217 c 0,1.498 0.357,2.691 1.08,3.587 0.73,0.962 1.877,1.438 3.433,1.438 1.627,0 2.629,-0.42 2.963,-1.173 0.315,-0.834 0.449,-1.899 0.449,-3.198 v -1.161 h 5.678 v 1.759 c 0,2.613 -0.445,4.626 -1.369,6.2 -0.955,1.574 -2.908,2.327 -5.697,2.327 m 85.304,5.276 h 6.061 v 5.356 h -6.061 z m 280.166,-15.796 v 0.184 c 0,0.069 0.014,0.13 0.051,0.192 v 0.408 c 0.061,2.216 0.43,3.594 1.246,4.283 0.819,0.619 2.223,0.891 4.379,0.891 2.463,0 4.137,-0.408 4.735,-1.154 0.734,-0.742 1.029,-2.372 1.029,-4.804 z m 17.412,-1.983 c 0,4.848 -0.695,8.059 -2.38,9.782 -1.543,1.721 -4.772,2.623 -9.555,2.623 -4.777,0 -7.953,-1.007 -9.492,-2.934 -1.461,-2.006 -2.104,-5.193 -2.104,-9.711 0,-5.039 0.614,-8.551 1.977,-10.619 1.504,-2.067 4.926,-3.032 10.248,-3.032 2.937,0 5.494,0.326 7.818,1.129 2.322,0.729 3.488,2.872 3.488,6.347 v 0.531 c 0,0.143 -0.015,0.278 -0.044,0.482 h -6.02 v -0.506 c 0,-1.593 -0.457,-2.605 -1.519,-2.958 -1.055,-0.426 -2.219,-0.672 -3.493,-0.672 -3.127,0 -5.011,0.664 -5.504,1.852 -0.648,1.179 -0.894,3.104 -0.894,5.84 h 17.43 z m -161.089,-4.16 h -0.209 l -9.952,27.295 h -11.357 v -36.793 h 6.885 l -0.295,30.811 11.705,-30.811 h 6.252 l 11.701,31.027 -0.342,-31.027 h 6.891 V 7.457 h -11.561 z m 45.066,1.47 c 0,-0.342 -0.014,-0.736 -0.047,-1.136 -0.033,-0.773 -0.109,-1.521 -0.24,-2.303 -0.135,-0.717 -0.354,-1.335 -0.822,-1.86 -0.289,-0.458 -0.664,-0.723 -1.282,-0.885 -0.461,-0.233 -1.082,-0.343 -1.566,-0.411 -0.289,-0.031 -0.713,-0.05 -0.992,-0.05 h -1.514 c -2.719,0 -4.197,0.661 -4.578,1.976 -0.537,1.39 -0.728,3.124 -0.728,5.194 v 2.839 c 0,0.377 0.019,0.766 0.048,1.086 0,0.358 0.02,0.726 0.051,1.038 0.033,0.377 0.065,0.685 0.092,1.08 0,0.098 0.012,0.197 0.027,0.364 0.02,0.092 0.039,0.191 0.071,0.285 0.099,0.432 0.359,0.851 0.511,1.203 0.149,0.426 0.358,0.803 0.653,1.062 0.396,0.327 0.726,0.513 1.131,0.623 0.546,0.113 0.955,0.241 1.49,0.241 0.195,0.038 0.355,0.049 0.537,0.049 h 2.625 c 0.305,0 0.482,-0.011 0.676,-0.049 0.453,0 1.019,-0.134 1.423,-0.264 0.545,-0.125 0.899,-0.336 1.178,-0.699 0.5,-0.425 0.75,-0.974 0.897,-1.661 0.144,-0.68 0.254,-1.389 0.312,-2.21 0.033,-0.463 0.047,-0.821 0.047,-1.228 z m -6.266,15.138 c -4.656,0 -7.82,-0.829 -9.349,-2.624 -1.668,-1.649 -2.485,-4.865 -2.485,-9.483 v -2.532 c 0,-4.879 1.01,-8.094 3.059,-9.504 2.063,-1.487 5.367,-2.196 9.928,-2.196 5.511,0 8.652,1.198 9.711,3.586 1.056,2.39 1.666,5.866 1.666,10.422 0,5.052 -0.907,8.374 -2.582,9.972 -1.778,1.592 -5.102,2.359 -9.948,2.359 m 58.098,-26.106 H 506.8 V 7.457 h -6.158 z m -22.943,11.855 c 0,-2.241 -0.389,-4.006 -0.871,-5.291 -0.577,-1.359 -2.161,-2 -4.754,-2 -2.967,0 -4.602,0.674 -5.217,2.099 -0.461,1.34 -0.809,3.316 -0.809,5.748 v 1.062 c 0,2.402 0.36,4.3 0.83,5.749 0.633,1.376 2.219,2.141 5.049,2.141 2.631,0 4.194,-0.61 4.854,-1.925 0.517,-1.235 0.918,-3.02 0.918,-5.367 z m -4.086,14.293 c -1.555,0 -3.106,-0.216 -4.381,-0.74 -1.268,-0.519 -2.305,-1.567 -2.984,-3.13 h -0.331 V 7.457 h -6.062 v -36.793 h 6.062 l -0.148,3.879 c 1.018,-1.63 2.119,-2.716 3.32,-3.254 1.202,-0.538 2.838,-0.772 4.619,-0.772 4.682,0 7.6,1.241 8.614,3.783 1.01,2.478 1.439,5.751 1.439,9.757 0,4.1 -0.484,7.219 -1.586,9.435 -1.107,2.221 -4.006,3.32 -8.562,3.32 m 14.949,-26.148 h 6.217 V -3.58 h -6.217 z m -331.435,7.8 c 0,-1.6 -0.544,-2.631 -1.614,-3.035 -1.075,-0.473 -2.245,-0.775 -3.511,-0.837 h -1.103 c -1.695,0 -2.952,0.18 -3.851,0.623 -0.825,0.439 -1.276,1.606 -1.276,3.489 v 0.556 c 0.033,0.419 0.107,0.827 0.217,1.129 0.185,0.376 0.371,0.644 0.701,0.939 0.32,0.258 0.758,0.513 1.246,0.625 0.443,0.11 0.907,0.184 1.397,0.215 0.328,0.11 0.584,0.123 0.915,0.123 h 1.877 c 0.403,0 0.748,-0.013 1.176,-0.123 0.552,-0.062 1.097,-0.155 1.636,-0.284 0.533,-0.13 1.001,-0.396 1.321,-0.655 0.293,-0.265 0.458,-0.507 0.55,-0.864 0.172,-0.283 0.237,-0.655 0.268,-1.012 0.029,-0.131 0.051,-0.266 0.051,-0.409 z m 2.816,16.695 c -2.251,0.982 -5.124,1.469 -8.637,1.469 -3.064,0 -5.574,-0.395 -7.676,-1.111 -2.082,-0.717 -3.083,-2.933 -3.083,-6.668 h 6.234 v 0.833 c 0.034,0.221 0.066,0.458 0.096,0.771 0.032,0.243 0.099,0.538 0.19,0.73 0.305,0.462 0.62,0.821 1.107,0.993 0.493,0.179 1.013,0.371 1.567,0.44 0.361,0.03 0.641,0.049 0.986,0.049 h 0.819 c 2.119,0 3.518,-0.366 4.355,-1.014 0.763,-0.654 1.181,-2.104 1.181,-4.186 l -0.1,-3.933 c -0.033,0.032 -0.054,0.075 -0.086,0.118 -0.058,0.055 -0.1,0.093 -0.128,0.123 -0.198,0.364 -0.48,0.643 -0.723,0.988 -0.241,0.272 -0.607,0.562 -1.034,0.723 -0.492,0.265 -1.015,0.4 -1.49,0.481 -0.619,0.079 -1.124,0.148 -1.78,0.218 -0.389,0 -0.842,0.084 -1.304,0.096 -0.458,0.013 -0.824,0.026 -1.25,0.026 -2.958,0 -5.301,-0.556 -7.003,-1.662 -1.731,-1.111 -2.594,-3.322 -2.594,-6.643 0,-3.087 0.912,-5.168 2.672,-6.181 1.75,-0.932 3.998,-1.444 6.735,-1.444 1.818,0 3.455,0.147 4.835,0.512 1.454,0.279 2.631,1.309 3.537,3.001 l -0.146,-3.224 h 6.065 v 16.813 c 0,4.168 -1.126,6.778 -3.345,7.682 M 325.455,-16.82 c 0,-2.34 -0.221,-4.211 -0.811,-5.698 -0.455,-1.415 -2.217,-2.186 -5.01,-2.186 -2.541,0 -4.215,0.561 -4.744,1.704 -0.674,1.137 -0.941,2.847 -0.941,5.119 v 3.371 c 0,2.512 0.316,4.192 1.086,5.05 0.627,0.933 2.24,1.329 4.554,1.329 2.787,0 4.561,-0.742 5.02,-2.291 0.615,-1.477 0.846,-3.471 0.846,-5.841 z m 0.242,9.385 c -0.127,0.223 -0.266,0.44 -0.408,0.722 -0.147,0.205 -0.428,0.482 -0.557,0.673 -0.768,1.167 -1.758,1.981 -2.815,2.286 -1.06,0.382 -2.429,0.53 -4.259,0.53 -4.465,0 -7.194,-1.185 -8.33,-3.568 -1.139,-2.378 -1.784,-5.539 -1.784,-9.385 0,-1.05 0.012,-2.013 0.047,-3.039 0.032,-1.037 0.11,-2.068 0.371,-3.044 0.338,-2.71 1.469,-4.563 3.262,-5.623 1.94,-1.063 4.131,-1.595 6.568,-1.595 1.678,0 3.116,0.218 4.463,0.724 1.346,0.505 2.401,1.543 3.153,3.105 h 0.146 v -5.483 c 0,-2.186 -0.623,-3.526 -1.59,-4.093 -1.109,-0.568 -2.73,-0.895 -4.58,-0.895 -1.668,0 -2.869,0.284 -3.754,0.769 -0.732,0.423 -1.248,1.545 -1.248,3.3 l -5.826,0.122 v -0.556 c 0,-0.264 0.008,-0.438 0.024,-0.677 0.019,-0.156 0.021,-0.317 0.021,-0.477 0.033,-0.659 0.098,-1.237 0.197,-1.826 0.094,-0.585 0.401,-1.143 0.625,-1.596 0.545,-1.269 1.487,-2.091 2.696,-2.59 1.203,-0.515 2.47,-0.786 3.945,-0.989 0.549,-0.03 1.24,-0.062 1.787,-0.081 0.695,-0.011 1.197,-0.018 1.826,-0.018 4.27,0 7.207,0.697 9.104,2.167 1.744,1.395 2.695,4.274 2.695,8.638 V -3.58 h -5.922 z m -32.49,4.26 c -1.92,0 -3.579,-0.283 -4.825,-0.914 -1.24,-0.703 -2.359,-1.84 -3.373,-3.395 l -0.051,3.904 h -5.822 v -25.756 h 6.209 v 15.424 c 0,2.018 0.469,3.446 1.541,4.427 1.074,0.982 2.518,1.469 4.477,1.469 2.15,0 3.467,-0.432 3.943,-1.301 0.631,-0.797 0.869,-2.223 0.869,-4.144 v -15.875 h 6.219 v 17.61 c 0,3.26 -0.797,5.501 -2.244,6.725 -1.59,1.215 -3.893,1.826 -6.943,1.826 m 61.183,-14.682 c 0,-2.31 -0.31,-4.043 -1.084,-5.198 -0.623,-1.155 -2.369,-1.73 -4.93,-1.73 -2.087,0 -3.343,0.451 -3.775,1.275 -0.584,0.893 -0.795,2.22 -0.795,4.115 V -3.58 h -6.111 v -17.285 c 0,-2.969 0.623,-5.185 2.16,-6.659 1.395,-1.396 3.609,-2.101 6.498,-2.101 1.996,0 3.582,0.259 5.055,0.846 1.334,0.58 2.422,1.784 3.267,3.686 h 0.198 l -0.092,-4.243 h 5.818 V -3.58 h -6.209 z m 172.539,14.682 c -1.961,0 -3.486,-0.283 -4.721,-0.914 -1.232,-0.703 -2.359,-1.84 -3.363,-3.395 l -0.053,3.904 h -5.822 v -25.756 h 6.063 v 15.424 c 0,2.018 0.609,3.446 1.547,4.427 1.066,0.982 2.658,1.469 4.468,1.469 2.155,0 3.469,-0.432 4.1,-1.301 0.482,-0.797 0.863,-2.223 0.863,-4.144 v -15.875 h 6.063 v 17.61 c 0,3.26 -0.791,5.501 -2.237,6.725 -1.441,1.215 -3.752,1.826 -6.908,1.826 m -708.182,-10.52 v 0.184 c 0,0.069 0.015,0.13 0.049,0.192 v 0.408 c 0.063,2.216 0.502,3.594 1.247,4.283 0.815,0.619 2.23,0.891 4.38,0.891 2.469,0 4.073,-0.408 4.736,-1.154 0.737,-0.742 1.03,-2.372 1.03,-4.804 z m 17.49,-1.983 c 0,4.848 -0.846,8.059 -2.384,9.782 -1.615,1.721 -4.848,2.623 -9.627,2.623 -4.852,0 -7.952,-1.007 -9.451,-2.934 -1.448,-2.006 -2.215,-5.193 -2.215,-9.711 0,-5.039 0.68,-8.551 2.117,-10.619 1.362,-2.067 4.778,-3.032 10.251,-3.032 2.863,0 5.472,0.326 7.817,1.129 2.323,0.729 3.492,2.872 3.492,6.347 v 0.531 c 0,0.143 -0.019,0.278 -0.052,0.482 h -6.089 v -0.506 c 0,-1.593 -0.531,-2.605 -1.59,-2.958 -1.058,-0.426 -2.22,-0.672 -3.491,-0.672 -3.057,0 -4.932,0.664 -5.507,1.852 -0.568,1.179 -0.82,3.104 -0.82,5.84 h 17.497 z m -31.217,-3.857 v -1.205 c 0,-1.168 -0.136,-2.191 -0.48,-2.982 -0.268,-0.798 -1.159,-1.229 -2.519,-1.229 -1.4,0 -2.166,0.291 -2.421,1.012 -0.199,0.649 -0.294,1.507 -0.294,2.649 v 13.059 h 9.792 v 4.651 h -9.792 v 5.846 h -6.137 V -3.58 h -3.323 v -4.651 h 3.323 v -13.855 c 0,-3.13 0.675,-5.113 2.091,-6.087 1.344,-0.902 3.538,-1.396 6.495,-1.396 3.284,0 5.513,0.684 6.687,2.045 1.17,1.436 1.753,3.666 1.753,6.691 v 0.643 c 0,0.272 -0.015,0.456 -0.045,0.655 z m 811.755,1.167 c 0,-0.342 -0.02,-0.736 -0.051,-1.136 -0.037,-0.773 -0.115,-1.521 -0.246,-2.303 -0.148,-0.717 -0.494,-1.335 -0.812,-1.86 -0.299,-0.458 -0.821,-0.723 -1.282,-0.885 -0.613,-0.233 -1.088,-0.343 -1.715,-0.411 -0.294,-0.031 -0.568,-0.05 -0.847,-0.05 h -1.656 c -2.571,0 -4.061,0.661 -4.583,1.976 -0.394,1.39 -0.583,3.124 -0.583,5.194 v 2.839 c 0,0.377 0.015,0.766 0.054,1.086 0,0.358 0.01,0.726 0.045,1.038 0.033,0.377 0.063,0.685 0.09,1.08 0,0.098 0.018,0.197 0.027,0.364 0.016,0.092 0.043,0.191 0.075,0.285 0.097,0.432 0.218,0.851 0.361,1.203 0.144,0.426 0.506,0.803 0.795,1.062 0.256,0.327 0.59,0.513 1.135,0.623 0.404,0.113 0.959,0.241 1.373,0.241 0.158,0.038 0.332,0.049 0.652,0.049 h 2.633 c 0.156,0 0.336,-0.011 0.67,-0.049 0.449,0 0.879,-0.134 1.429,-0.264 0.397,-0.125 0.881,-0.336 1.174,-0.699 0.356,-0.425 0.606,-0.974 0.897,-1.661 0.144,-0.68 0.25,-1.389 0.314,-2.21 0.031,-0.463 0.051,-0.821 0.051,-1.228 z m 3.555,12.779 c -1.657,1.592 -4.975,2.359 -9.975,2.359 -4.654,0 -7.789,-0.829 -9.348,-2.624 -1.525,-1.649 -2.361,-4.865 -2.361,-9.483 v -2.532 c 0,-4.879 1.029,-8.094 3.088,-9.504 2.033,-1.487 5.217,-2.196 9.775,-2.196 5.51,0 8.799,1.198 9.86,3.586 1.054,2.39 1.517,5.866 1.517,10.422 0,5.052 -0.76,8.374 -2.556,9.972 m -694.727,-5.994 c 0,-1.447 -0.032,-2.976 -0.096,-4.506 -0.158,-3.415 -0.9,-5.49 -2.266,-6.356 -1.437,-0.79 -3.747,-1.228 -7.008,-1.228 -2.439,0 -4.283,0.327 -5.542,0.92 -1.319,0.585 -2.046,2.259 -2.234,5.031 -0.033,0.477 -0.058,1.026 -0.07,1.556 -0.041,0.544 -0.067,1.087 -0.067,1.638 v 4.77 c 0,0.397 0.049,0.848 0.086,1.274 v 0.505 c 0,3.767 0.347,6.386 1.186,7.701 0.756,1.394 3.537,2.049 8.257,2.049 3.489,0 5.656,-0.618 6.525,-1.853 0.795,-1.308 1.229,-3.635 1.229,-7.056 z m 6.928,8.167 c -0.221,5.187 -1.993,8.299 -5.294,9.422 -3.31,1.118 -7.11,1.68 -11.339,1.68 -7.102,0 -11.294,-1.661 -12.643,-4.909 -1.417,-3.315 -2.094,-8.088 -2.094,-14.164 v -1.759 c -0.028,-0.352 -0.045,-0.717 -0.045,-1.006 v -1.007 c 0,-5.853 1.156,-9.743 3.462,-11.602 2.315,-1.919 6.256,-2.808 11.824,-2.808 7.91,0 12.592,1.388 14.054,4.236 1.499,2.852 2.223,7.717 2.223,14.527 v 2.457 c 0,0.876 -0.005,1.673 -0.027,2.453 -0.015,0.85 -0.057,1.628 -0.121,2.48 m -60.932,0.143 c -1.787,0 -3.415,-0.332 -4.872,-0.939 -1.404,-0.599 -2.501,-1.809 -3.209,-3.631 h -0.208 c -0.331,1.692 -1.206,2.846 -2.487,3.464 -1.286,0.619 -2.712,0.995 -4.137,1.063 -0.268,0.03 -0.458,0.043 -0.664,0.043 h -0.708 c -1.727,0 -3.192,-0.307 -4.546,-0.792 -1.286,-0.555 -2.4,-1.628 -3.28,-3.221 l -0.113,3.706 h -5.924 v -25.756 h 6.129 v 14.919 c 0,2.086 0.359,3.66 1.223,4.716 0.799,1 2.316,1.513 4.495,1.513 2.01,0 3.311,-0.346 3.7,-1.198 0.455,-0.777 0.752,-2.063 0.816,-3.921 v -16.029 h 6.28 v 15.134 c 0,2.409 0.448,4.013 1.306,4.742 0.912,0.73 1.841,1.161 2.915,1.229 0.298,0.031 0.52,0.043 0.818,0.043 h 0.7 c 1.985,0 3.3,-0.377 3.769,-1.272 0.476,-0.828 0.762,-2.205 0.762,-3.995 v -15.881 h 6.282 v 17.104 c 0,3.198 -0.689,5.483 -2.143,6.841 -1.378,1.437 -3.681,2.118 -6.904,2.118 m -120.383,-22.184 -6.525,21.852 h -6.378 l 8.485,-25.731 h 2.973 c -0.03,-0.19 -0.07,-0.487 -0.135,-0.746 -0.099,-0.327 -0.144,-0.568 -0.177,-0.863 -0.257,-1.334 -0.746,-2.552 -1.397,-3.662 -0.653,-1.101 -1.742,-1.661 -3.27,-1.661 h -0.36 c -0.1,0 -0.194,0.018 -0.29,0.05 -0.133,0 -0.315,0.005 -0.414,0.024 -0.092,0.019 -0.19,0.024 -0.289,0.024 v -4.427 c 0.197,-0.036 0.383,-0.062 0.626,-0.073 0.178,-0.019 0.367,-0.039 0.626,-0.075 h 1.253 c 3.449,0 5.772,0.952 6.953,2.773 1.2,1.821 2.163,4.161 2.845,7.027 l 6.835,27.34 h -6.331 z m 361.542,5.619 H 112.56 L 102.598,7.457 H 91.243 v -36.793 h 6.879 l -0.285,30.811 11.695,-30.811 h 6.336 l 11.616,31.027 -0.262,-31.027 h 6.954 V 7.457 H 122.553 Z M 488.562,2.101 h 6.217 v 5.356 h -6.217 z m -704.005,-17.074 c -2.184,0.808 -4.542,1.24 -7.146,1.302 h -0.532 c -0.187,0 -0.348,0.013 -0.563,0.048 h -1.289 c -0.419,0 -0.805,0.014 -1.231,0.051 -1.233,0.061 -2.155,0.265 -2.699,0.667 -0.534,0.414 -0.767,1.246 -0.767,2.655 0,1.334 0.443,2.119 1.253,2.432 0.884,0.315 1.775,0.434 2.822,0.434 h 0.651 c 0.265,0 0.475,0.017 0.768,0.049 h 1.302 c 1.111,0 1.978,-0.277 2.752,-0.674 0.695,-0.475 1.079,-1.352 1.079,-2.555 h 5.876 c 0,0.098 0.008,0.258 0.024,0.338 0.013,0.08 0.027,0.155 0.027,0.216 v 0.555 c 0,2.403 -0.8,4.033 -2.461,4.885 -1.663,0.766 -3.473,1.259 -5.489,1.382 -0.587,0.032 -1.174,0.051 -1.76,0.051 h -1.709 c -2.804,0 -5.317,-0.321 -7.627,-1.112 -2.326,-0.709 -3.484,-2.852 -3.484,-6.365 0,-3.878 1.113,-6.163 3.354,-6.861 2.243,-0.696 4.87,-1.098 7.794,-1.129 0.198,0 0.462,-0.007 0.652,-0.025 0.264,-0.018 0.459,-0.025 0.653,-0.025 h 1.324 c 1.166,-0.037 2.025,-0.198 2.646,-0.581 0.624,-0.376 0.962,-1.178 0.962,-2.546 0,-1.729 -0.46,-2.714 -1.301,-3.09 -0.914,-0.376 -2.117,-0.531 -3.681,-0.531 h -1.852 c -1.632,0 -2.778,0.315 -3.444,0.87 -0.666,0.485 -1.031,1.607 -1.031,3.376 h -6.233 v -1.424 c 0,-2.932 0.989,-4.793 2.907,-5.662 1.989,-0.79 4.14,-1.26 6.5,-1.321 0.435,-0.038 0.9,-0.051 1.371,-0.051 h 1.341 c 3.274,0 6.016,0.409 8.215,1.372 2.2,0.964 3.299,3.315 3.299,7.131 0,3.389 -1.093,5.409 -3.273,6.138 M 63.763,2.101 h 6.063 v 5.356 h -6.063 z m 0,-31.437 h 6.063 V -3.58 h -6.063 z m -330.926,20.012 c -2.765,0.926 -5.905,1.444 -9.554,1.537 -0.454,0 -0.857,0.013 -1.329,0.024 -0.476,0.019 -0.953,0.043 -1.447,0.08 -0.159,0 -0.311,0 -0.493,0.019 -0.181,0.019 -0.333,0.019 -0.495,0.019 -1.956,0.172 -3.248,0.52 -3.95,1.192 -0.768,0.742 -1.085,1.994 -1.085,3.828 0,0.161 0.011,0.401 0.029,0.575 0.011,0.252 0.022,0.437 0.022,0.63 0.097,0.554 0.243,1.073 0.504,1.562 0.196,0.486 0.556,0.829 0.943,1.16 0.458,0.296 0.978,0.469 1.568,0.574 0.584,0.118 1.169,0.186 1.757,0.225 0.392,0.102 0.789,0.114 1.131,0.114 h 3.058 c 2.112,0 3.661,-0.394 4.583,-1.105 0.838,-0.79 1.298,-2.197 1.298,-4.383 h 6.737 v 1.462 c 0,4.668 -1.436,7.435 -4.238,8.206 -2.78,0.778 -6.043,1.199 -9.856,1.199 -0.977,0 -1.892,-0.013 -2.893,-0.043 -0.992,-0.038 -1.962,-0.081 -2.889,-0.15 -3.225,-0.295 -5.488,-1.196 -6.788,-2.852 -1.301,-1.661 -2.021,-4.007 -2.021,-7.132 0,-4.827 1.097,-7.839 3.3,-8.829 2.195,-1.061 5.215,-1.704 9.124,-2.006 0.233,-0.031 0.4,-0.056 0.58,-0.067 0.248,-0.019 0.415,-0.026 0.576,-0.026 0.425,-0.03 0.832,-0.049 1.156,-0.049 h 1.112 c 2.018,-0.037 3.657,-0.315 4.908,-0.698 1.255,-0.457 1.882,-1.926 1.882,-4.328 0,-2.247 -0.505,-3.648 -1.458,-4.351 -0.998,-0.637 -2.598,-0.916 -4.777,-0.916 h -2.608 c -0.911,0 -1.827,0.012 -2.672,0.05 -2.086,0.032 -3.331,0.642 -3.804,1.845 -0.467,1.205 -0.678,2.687 -0.678,4.379 h -6.686 v -0.692 c -0.036,-0.171 -0.05,-0.271 -0.05,-0.389 v -0.383 c 0,-5.076 1.378,-8.057 3.997,-9.018 2.688,-0.891 6.135,-1.374 10.335,-1.374 h 1.789 c 0.533,0 1.154,0.013 1.748,0.05 0.544,0.037 1.078,0.056 1.671,0.074 0.543,0.012 1.164,0.038 1.753,0.068 3.581,0.396 5.876,1.575 6.882,3.613 0.945,1.963 1.446,4.556 1.446,7.643 0,4.914 -1.346,7.804 -4.118,8.663 m 222.064,-8.157 c 0,-2.241 -0.239,-4.006 -0.791,-5.291 -0.553,-1.359 -2.164,-2 -4.757,-2 -2.902,0 -4.662,0.674 -5.144,2.099 -0.541,1.34 -0.84,3.316 -0.84,5.748 v 1.062 c 0,2.402 0.307,4.3 0.862,5.749 0.553,1.376 2.157,2.141 4.903,2.141 2.7,0 4.342,-0.61 4.925,-1.925 0.587,-1.235 0.842,-3.02 0.842,-5.367 z m -4.011,14.293 c -1.564,0 -3.038,-0.216 -4.305,-0.74 -1.287,-0.519 -2.311,-1.567 -3.127,-3.13 h -0.19 V 7.457 h -6.134 v -36.793 h 6.134 l -0.146,3.879 c 0.939,-1.63 2.044,-2.716 3.262,-3.254 1.256,-0.538 2.75,-0.772 4.673,-0.772 4.688,0 7.528,1.241 8.541,3.783 0.938,2.478 1.44,5.751 1.44,9.757 0,4.1 -0.549,7.219 -1.659,9.435 -1.107,2.221 -3.938,3.32 -8.489,3.32 M 51.973,-16.82 c 0,-2.34 -0.222,-4.211 -0.742,-5.698 -0.524,-1.415 -2.218,-2.186 -5.082,-2.186 -2.607,0 -4.186,0.561 -4.813,1.704 -0.602,1.137 -0.867,2.847 -0.867,5.119 v 3.371 c 0,2.512 0.317,4.192 1.085,5.05 0.7,0.933 2.238,1.329 4.551,1.329 2.862,0 4.565,-0.742 5.102,-2.291 0.53,-1.477 0.766,-3.471 0.766,-5.841 z m 0.313,9.385 c -0.203,0.223 -0.336,0.44 -0.483,0.722 -0.214,0.205 -0.352,0.482 -0.476,0.673 -0.916,1.167 -1.833,1.981 -2.897,2.286 -1.054,0.382 -2.498,0.53 -4.256,0.53 -4.392,0 -7.191,-1.185 -8.331,-3.568 -1.136,-2.378 -1.709,-5.539 -1.709,-9.385 0,-1.05 0.018,-2.013 0.047,-3.039 0.034,-1.037 0.114,-2.068 0.24,-3.044 0.393,-2.71 1.528,-4.563 3.394,-5.623 1.944,-1.063 4.063,-1.595 6.574,-1.595 1.526,0 3.037,0.218 4.444,0.724 1.357,0.505 2.41,1.543 3.088,3.105 h 0.15 v -5.483 c 0,-2.186 -0.556,-3.526 -1.66,-4.093 -1.109,-0.568 -2.585,-0.895 -4.575,-0.895 -1.526,0 -2.808,0.284 -3.615,0.769 -0.879,0.423 -1.247,1.545 -1.247,3.3 l -5.896,0.122 v -0.556 c 0,-0.264 0.004,-0.438 0.023,-0.677 0.037,-0.156 0.069,-0.317 0.069,-0.477 0.052,-0.659 0.12,-1.237 0.219,-1.826 0.094,-0.585 0.253,-1.143 0.553,-1.596 0.617,-1.269 1.562,-2.091 2.768,-2.59 1.205,-0.515 2.469,-0.786 3.808,-0.989 0.683,-0.03 1.306,-0.062 1.923,-0.081 0.615,-0.011 1.198,-0.018 1.751,-0.018 4.202,0 7.283,0.697 9.106,2.167 1.82,1.395 2.767,4.274 2.767,8.638 V -3.58 h -5.994 z m -66.862,-7.538 c -2.184,0.808 -4.539,1.24 -7.077,1.302 h -0.551 c -0.233,0 -0.393,0.013 -0.554,0.048 h -1.346 c -0.373,0 -0.802,0.014 -1.228,0.051 -1.235,0.061 -2.161,0.265 -2.691,0.667 -0.468,0.414 -0.777,1.246 -0.777,2.655 0,1.334 0.441,2.119 1.254,2.432 0.884,0.315 1.775,0.434 2.819,0.434 h 0.652 c 0.265,0 0.471,0.017 0.771,0.049 h 1.302 c 1.108,0 2.02,-0.277 2.748,-0.674 0.699,-0.475 1.082,-1.352 1.082,-2.555 h 5.875 c 0,0.098 0.007,0.258 0.022,0.338 0.019,0.08 0.029,0.155 0.029,0.216 v 0.555 c 0,2.403 -0.796,4.033 -2.458,4.885 -1.665,0.766 -3.468,1.259 -5.497,1.382 -0.584,0.032 -1.173,0.051 -1.757,0.051 h -1.709 c -2.799,0 -5.311,-0.321 -7.612,-1.112 -2.294,-0.709 -3.441,-2.852 -3.441,-6.365 0,-3.878 1.123,-6.163 3.312,-6.861 2.23,-0.696 4.853,-1.098 7.785,-1.129 0.262,0 0.455,-0.007 0.649,-0.025 0.267,-0.018 0.458,-0.025 0.665,-0.025 H -21 c 1.169,-0.037 2.029,-0.198 2.684,-0.581 0.655,-0.376 0.925,-1.178 0.925,-2.546 0,-1.729 -0.459,-2.714 -1.302,-3.09 -0.915,-0.376 -2.116,-0.531 -3.682,-0.531 h -1.852 c -1.627,0 -2.776,0.315 -3.44,0.87 -0.665,0.485 -1.035,1.607 -1.035,3.376 h -6.235 v -1.424 c 0,-2.932 0.995,-4.793 2.916,-5.662 1.984,-0.79 4.155,-1.26 6.498,-1.321 0.486,-0.038 0.901,-0.051 1.37,-0.051 h 1.395 c 3.217,0 5.96,0.409 8.163,1.372 2.196,0.964 3.291,3.315 3.291,7.131 0,3.389 -1.086,5.409 -3.272,6.138 m 37.387,-2.884 c 0,-2.31 -0.382,-4.043 -1.08,-5.198 -0.698,-1.155 -2.369,-1.73 -5.005,-1.73 -2.052,0 -3.348,0.451 -3.852,1.275 -0.473,0.893 -0.722,2.22 -0.722,4.115 V -3.58 H 5.969 v -17.285 c 0,-2.969 0.714,-5.185 2.164,-6.659 1.414,-1.396 3.61,-2.101 6.641,-2.101 1.918,0 3.58,0.259 4.908,0.846 1.401,0.58 2.501,1.784 3.275,3.686 h 0.192 l -0.098,-4.243 h 5.85 V -3.58 h -6.09 z m 564.312,1.037 c 0,-2.34 -0.231,-4.211 -0.819,-5.698 -0.447,-1.415 -2.219,-2.186 -5.006,-2.186 -2.539,0 -4.22,0.561 -4.744,1.704 -0.672,1.137 -0.939,2.847 -0.939,5.119 v 3.371 c 0,2.512 0.31,4.192 1.088,5.05 0.619,0.933 2.23,1.329 4.541,1.329 2.795,0 4.57,-0.742 5.035,-2.291 0.613,-1.477 0.844,-3.471 0.844,-5.841 z m 0.24,9.385 c -0.129,0.223 -0.264,0.44 -0.412,0.722 -0.141,0.205 -0.424,0.482 -0.559,0.673 -0.766,1.167 -1.758,1.981 -2.814,2.286 -1.055,0.382 -2.43,0.53 -4.258,0.53 -4.465,0 -7.194,-1.185 -8.328,-3.568 -1.141,-2.378 -1.787,-5.539 -1.787,-9.385 0,-1.05 0.019,-2.013 0.052,-3.039 0.034,-1.037 0.112,-2.068 0.27,-3.044 0.43,-2.71 1.572,-4.563 3.361,-5.623 1.945,-1.063 4.131,-1.595 6.57,-1.595 1.672,0 3.112,0.218 4.459,0.724 1.342,0.505 2.403,1.543 3.151,3.105 h 0.154 v -5.483 c 0,-2.186 -0.625,-3.526 -1.596,-4.093 -1.113,-0.568 -2.728,-0.895 -4.58,-0.895 -1.666,0 -2.867,0.284 -3.752,0.769 -0.732,0.423 -1.252,1.545 -1.252,3.3 l -5.822,0.122 v -0.556 c 0,-0.264 0.008,-0.438 0.024,-0.677 0.019,-0.156 0.021,-0.317 0.021,-0.477 0.033,-0.659 0.102,-1.237 0.193,-1.826 0.098,-0.585 0.407,-1.143 0.625,-1.596 0.545,-1.269 1.491,-2.091 2.698,-2.59 1.205,-0.515 2.47,-0.786 3.949,-0.989 0.543,-0.03 1.238,-0.062 1.781,-0.081 0.692,-0.011 1.205,-0.018 1.834,-0.018 4.268,0 7.201,0.697 9.094,2.167 1.75,1.395 2.701,4.274 2.701,8.638 V -3.58 h -5.918 z"
             style="fill:#e01f27;fill-opacity:1;fill-rule:nonzero;stroke:none"
             id="path58" /></g><path
           d="m 599.351,194.379 h 13.965 v 14.042 h -13.965 z m -18.466,0 h 14.013 v 14.042 h -14.013 z m -18.441,0 h 13.962 v 14.042 h -13.962 z m -18.492,0 h 14.038 v 14.042 h -14.038 z m -18.418,0 H 539.5 v 14.042 h -13.966 z m 92.233,18.203 h 13.965 v 14.04 h -13.965 z m -18.416,0 h 13.965 v 14.04 h -13.965 z m -73.817,0 H 539.5 v 14.04 h -13.966 z m -18.487,0 h 14.036 v 14.04 h -14.036 z m 110.72,18.219 h 13.965 v 14.04 h -13.965 z m -18.416,0 h 13.965 v 14.04 h -13.965 z m 0,18.771 h 13.965 v 14.041 h -13.965 z m -18.466,0 h 14.013 v 14.041 h -14.013 z m -18.441,0 h 13.962 v 14.041 h -13.962 z m -18.492,0 h 14.038 v 14.041 h -14.038 z m -18.418,0 H 539.5 v 14.041 h -13.966 z m 0,18.22 H 539.5 v 14.042 h -13.966 z m -18.487,0 h 14.036 v 14.042 h -14.036 z m 110.72,18.203 h 13.965 v 14.037 h -13.965 z m -18.416,0 h 13.965 v 14.037 h -13.965 z m -73.817,0 H 539.5 v 14.037 h -13.966 z m -18.487,0 h 14.036 v 14.037 h -14.036 z m 92.304,18.221 h 13.965 v 14.037 h -13.965 z m -18.466,0 h 14.013 v 14.037 h -14.013 z m -18.441,0 h 13.962 v 14.037 h -13.962 z m -18.492,0 h 14.038 v 14.037 h -14.038 z m -18.418,0 H 539.5 v 14.037 h -13.966 z"
           style="fill:#e01f27;fill-opacity:1;fill-rule:nonzero;stroke:none"
           id="path60" /><path
           d="m 896.634,194.379 h 13.969 v 14.042 h -13.969 z m -18.416,0 h 13.969 v 14.042 h -13.969 z m -18.412,0 h 13.963 v 14.042 h -13.963 z m -18.42,0 h 13.965 v 14.042 h -13.965 z m -18.564,0 h 14.111 v 14.042 h -14.111 z m 92.232,18.203 h 14.111 v 14.04 h -14.111 z m -18.42,0 h 13.969 v 14.04 h -13.969 z m -73.812,0 h 14.111 v 14.04 h -14.111 z m -18.416,0 h 13.967 v 14.04 h -13.967 z m 110.648,18.219 h 14.111 v 14.04 h -14.111 z m -18.42,0 h 13.969 v 14.04 h -13.969 z m 0,18.771 h 13.969 v 14.041 h -13.969 z m -18.416,0 h 13.969 v 14.041 h -13.969 z m -18.412,0 h 13.963 v 14.041 h -13.963 z m -18.42,0 h 13.965 v 14.041 h -13.965 z m -18.564,0 h 14.111 v 14.041 h -14.111 z m 0,18.22 h 14.111 v 14.042 h -14.111 z m -18.416,0 h 13.967 v 14.042 h -13.967 z m 110.648,18.203 h 14.111 v 14.037 h -14.111 z m -18.42,0 h 13.969 v 14.037 h -13.969 z m -73.812,0 h 14.111 v 14.037 h -14.111 z m -18.416,0 h 13.967 v 14.037 h -13.967 z m 92.228,18.221 h 13.969 v 14.037 h -13.969 z m -18.416,0 h 13.969 v 14.037 h -13.969 z m -18.412,0 h 13.963 v 14.037 h -13.963 z m -18.42,0 h 13.965 v 14.037 h -13.965 z m -18.564,0 h 14.111 v 14.037 h -14.111 z"
           style="fill:#e01f27;fill-opacity:1;fill-rule:nonzero;stroke:none"
           id="path62" /><path
           d="m 766.482,194.379 h 13.963 v 14.042 h -13.963 z m -18.553,0 h 14.1 v 14.042 h -14.1 z m -73.681,0 h 13.969 v 14.042 h -13.969 z m -18.563,0 H 669.8 v 14.042 h -14.115 z m 110.797,18.203 h 13.963 v 14.04 h -13.963 z m -18.553,0 h 14.1 v 14.04 h -14.1 z m -73.681,0 h 13.969 v 14.04 h -13.969 z m -18.563,0 H 669.8 v 14.04 h -14.115 z m 110.797,18.219 h 13.963 v 14.04 h -13.963 z m -18.553,0 h 14.1 v 14.04 h -14.1 z m -36.844,0 h 13.963 v 14.04 h -13.963 z m -36.837,0 h 13.969 v 14.04 h -13.969 z m -18.563,0 H 669.8 v 14.04 h -14.115 z m 110.797,18.771 h 13.963 v 14.041 h -13.963 z m -18.553,0 h 14.1 v 14.041 h -14.1 z m -18.426,0 h 14.111 v 14.041 h -14.111 z m -18.418,0 h 13.963 v 14.041 h -13.963 z m -18.416,0 h 13.961 v 14.041 h -13.961 z m -18.421,0 h 13.969 v 14.041 h -13.969 z m -18.563,0 H 669.8 v 14.041 h -14.115 z m 110.797,18.22 h 13.963 v 14.042 h -13.963 z m -18.553,0 h 14.1 v 14.042 h -14.1 z m -18.426,0 h 14.111 v 14.042 h -14.111 z m -36.834,0 h 13.961 v 14.042 h -13.961 z m -18.421,0 h 13.969 v 14.042 h -13.969 z m -18.563,0 H 669.8 v 14.042 h -14.115 z m 110.797,18.203 h 13.963 v 14.037 h -13.963 z m -18.553,0 h 14.1 v 14.037 h -14.1 z m -73.681,0 h 13.969 v 14.037 h -13.969 z m -18.563,0 H 669.8 v 14.037 h -14.115 z m 110.797,18.221 h 13.963 v 14.037 h -13.963 z m -110.797,0 H 669.8 v 14.037 h -14.115 z"
           style="fill:#e01f27;fill-opacity:1;fill-rule:nonzero;stroke:none"
           id="path64" /></g></g></g></svg>
