<?xml version="1.0" encoding="UTF-8" standalone="no"?>
<svg
   xmlns:dc="http://purl.org/dc/elements/1.1/"
   xmlns:cc="http://creativecommons.org/ns#"
   xmlns:rdf="http://www.w3.org/1999/02/22-rdf-syntax-ns#"
   xmlns:svg="http://www.w3.org/2000/svg"
   xmlns="http://www.w3.org/2000/svg"
   xmlns:sodipodi="http://sodipodi.sourceforge.net/DTD/sodipodi-0.dtd"
   xmlns:inkscape="http://www.inkscape.org/namespaces/inkscape"
   version="1.1"
   id="svg2"
   xml:space="preserve"
   width="487.84344"
   height="66.423996"
   viewBox="0 0 487.84344 66.423996"
   sodipodi:docname="smsapi.logo.svg"
   inkscape:version="1.0.2 (394de47547, 2021-03-26)"><metadata
     id="metadata8"><rdf:RDF><cc:Work
         rdf:about=""><dc:format>image/svg+xml</dc:format><dc:type
           rdf:resource="http://purl.org/dc/dcmitype/StillImage" /><dc:title></dc:title></cc:Work></rdf:RDF></metadata><defs
     id="defs6"><clipPath
       clipPathUnits="userSpaceOnUse"
       id="clipPath18"><path
         d="M 0,595.28 H 841.89 V 0 H 0 Z"
         id="path16" /></clipPath></defs><sodipodi:namedview
     pagecolor="#ffffff"
     bordercolor="#666666"
     borderopacity="1"
     objecttolerance="10"
     gridtolerance="10"
     guidetolerance="10"
     inkscape:pageopacity="0"
     inkscape:pageshadow="2"
     inkscape:window-width="914"
     inkscape:window-height="480"
     id="namedview4"
     showgrid="false"
     fit-margin-top="0"
     fit-margin-left="0"
     fit-margin-right="0"
     fit-margin-bottom="0"
     inkscape:zoom="0.18686456"
     inkscape:cx="-294.43288"
     inkscape:cy="-173.57272"
     inkscape:window-x="0"
     inkscape:window-y="0"
     inkscape:window-maximized="0"
     inkscape:current-layer="g10" /><g
     id="g10"
     inkscape:groupmode="layer"
     inkscape:label="smsapi_color_darklabel"
     transform="matrix(1.3333333,0,0,-1.3333333,-317.33919,430.06586)"><g
       id="g12"><g
         id="g14"
         clip-path="url(#clipPath18)"><g
           id="g20"
           transform="translate(282.8764,272.8212)"><path
             d="m 0,0 c 5.672,0 9.619,1.18 12.024,3.313 2.496,2.132 3.675,5.036 3.675,8.711 v 6.125 c 0,3.63 -1.179,6.444 -3.675,8.711 C 9.619,28.994 5.672,30.082 0,30.173 h -29.22 c -2.177,0 -3.72,0.408 -4.718,1.134 -0.998,0.862 -1.497,1.905 -1.497,3.403 v 3.085 c 0,1.498 0.499,2.632 1.497,3.403 0.998,0.817 2.541,1.135 4.718,1.135 h 42.106 v 7.395 H -29.22 c -5.626,-0.09 -9.618,-1.18 -12.114,-3.312 -2.404,-2.178 -3.538,-5.082 -3.538,-8.712 V 34.8 c 0,-3.629 1.134,-6.533 3.538,-8.711 2.496,-2.132 6.488,-3.221 12.114,-3.312 H 0 c 2.087,0 3.676,-0.409 4.764,-1.134 0.953,-0.863 1.452,-1.906 1.452,-3.404 V 11.934 C 6.216,10.436 5.717,9.302 4.764,8.531 3.676,7.714 2.087,7.305 0,7.305 H -43.239 V 0 Z"
             style="fill:#002957;fill-opacity:1;fill-rule:evenodd;stroke:none"
             id="path22" /></g><g
           id="g24"
           transform="translate(382.0147,272.8212)"><path
             d="M 0,0 V 49.728 H -8.031 L -37.477,9.12 -67.06,49.728 h -8.666 V 0 h 8.666 V 34.71 L -41.697,0 h 7.713 L -8.712,34.8 V 0 Z"
             style="fill:#002957;fill-opacity:1;fill-rule:evenodd;stroke:none"
             id="path26" /></g><g
           id="g28"
           transform="translate(435.0119,272.8212)"><path
             d="m 0,0 c 5.625,0 9.618,1.18 12.069,3.313 2.404,2.132 3.583,5.036 3.583,8.711 v 6.125 c 0,3.63 -1.179,6.444 -3.583,8.711 C 9.618,28.994 5.625,30.082 0,30.173 h -29.223 c -2.132,0 -3.629,0.408 -4.718,1.134 -0.998,0.862 -1.497,1.905 -1.497,3.403 v 3.085 c 0,1.498 0.499,2.632 1.497,3.403 1.089,0.817 2.586,1.135 4.718,1.135 h 42.065 v 7.395 h -42.065 c -5.625,-0.09 -9.618,-1.18 -12.023,-3.312 -2.496,-2.178 -3.629,-5.082 -3.629,-8.712 V 34.8 c 0,-3.629 1.133,-6.533 3.629,-8.711 2.405,-2.132 6.398,-3.221 12.023,-3.312 H 0 c 2.132,0 3.721,-0.409 4.718,-1.134 0.998,-0.863 1.498,-1.906 1.498,-3.404 V 11.934 C 6.216,10.436 5.716,9.302 4.718,8.531 3.721,7.714 2.132,7.305 0,7.305 H -43.242 V 0 Z"
             style="fill:#002957;fill-opacity:1;fill-rule:evenodd;stroke:none"
             id="path30" /></g><g
           id="g32"
           transform="translate(506.79,291.2423)"><path
             d="M 0,0 -2.769,-0.045 0,-4.31 9.166,-18.421 H 19.783 L 7.623,0.045 Z"
             style="fill:#008ad0;fill-opacity:1;fill-rule:nonzero;stroke:none"
             id="path34" /></g><g
           id="g36"
           transform="translate(499.3944,298.5934)"><path
             d="m 0,0 h 7.396 2.812 L 7.396,4.174 -5.716,23.956 h -6.806 l -33.122,-49.728 9.756,-0.09 12.341,18.556 H -4.582 L -8.711,0 h -10.028 l 9.71,14.246 z"
             style="fill:#008ad0;fill-opacity:1;fill-rule:nonzero;stroke:none"
             id="path38" /></g><g
           id="g40"
           transform="translate(571.8979,322.5493)"><path
             d="m 0,0 h -36.025 -4.765 v -24.047 h 4.765 4.719 V -7.396 H 0 c 2.178,0 3.722,-0.317 4.72,-1.134 0.998,-0.771 1.496,-1.905 1.496,-3.403 v -7.486 c 0,-1.452 -0.498,-2.632 -1.496,-3.449 C 3.722,-23.639 2.178,-24.047 0,-24.047 h -22.549 l 4.674,-7.305 L 0,-31.397 c 5.627,0.045 9.62,1.134 12.115,3.357 2.406,2.178 3.63,5.082 3.539,8.621 v 7.395 c 0.091,3.63 -1.133,6.534 -3.539,8.712 C 9.62,-1.18 5.627,-0.09 0,0"
             style="fill:#008ad0;fill-opacity:1;fill-rule:nonzero;stroke:none"
             id="path42" /></g><g
           id="g44"
           transform="translate(531.108,291.1974)"><path
             d="M 0,0 V -18.376 H 4.765 9.484 V -9.165 0 H 4.765 Z"
             style="fill:#008ad0;fill-opacity:1;fill-rule:nonzero;stroke:none"
             id="path46" /></g><path
           d="m 594.449,272.821 h 9.438 v 49.728 h -9.438 z"
           style="fill:#008ad0;fill-opacity:1;fill-rule:nonzero;stroke:none"
           id="path48" /></g></g></g></svg>
